<svg id="Group_37" data-name="Group 37" xmlns="http://www.w3.org/2000/svg" xmlns:xlink="http://www.w3.org/1999/xlink" width="65.165" height="59.249" viewBox="0 0 65.165 59.249">
  <defs>
    <clipPath id="clip-path">
      <rect id="Rectangle_25" data-name="Rectangle 25" width="65.165" height="59.249" fill="none" stroke="#b0c91c" stroke-width="2"/>
    </clipPath>
  </defs>
  <g id="Group_37-2" data-name="Group 37" clip-path="url(#clip-path)">
    <path id="Path_85" data-name="Path 85" d="M59.612,37.766l4-4c6.9-6.887,3.487-16.191-2.069-22.164a25.586,25.586,0,0,0-6.09-4.89C52.633,5.135,43.786,2.819,38,8.45L25.992,20.4c-3.241,3.226,4.938,6.346,9.078,2.266l3.025-2.981c4.469-4.052,10.084,4.068,17.084-1.455M12.871,35.876l-4-3.989C-4.437,18.593,18.621-4.232,32.135,8.921L34.826,11.6m9.66,10.979L59.948,38.788C63.1,42.1,58.418,48.4,54.367,44.22L47.12,36.747M40.8,41.782l7.967,8.185c3.19,3.276,9.647-1.568,5.6-5.748l-7.787-8.035m-8.2,14.642,3.979,4.012c3.22,3.246,9.473-1.387,5.456-5.605" transform="translate(-3.587 -3.586)" fill="none" stroke="#b0c91c" stroke-linecap="round" stroke-linejoin="round" stroke-width="2"/>
    <path id="Path_86" data-name="Path 86" d="M38.133,106.762l.425.425a3.717,3.717,0,0,1,0,5.231l-5.506,5.509a3.717,3.717,0,0,1-5.231,0L27.4,117.5a3.713,3.713,0,0,1,0-5.231l5.506-5.509A3.712,3.712,0,0,1,38.133,106.762Zm9.263,2.521.425.425a3.714,3.714,0,0,1,0,5.231l-8.772,8.772a3.717,3.717,0,0,1-5.23,0l-.425-.425a3.714,3.714,0,0,1,0-5.231l8.772-8.771A3.709,3.709,0,0,1,47.4,109.282Zm3.585,8.2.425.425a3.712,3.712,0,0,1,0,5.231l-6.014,6.014a3.714,3.714,0,0,1-5.231,0l-.425-.425a3.711,3.711,0,0,1,0-5.231l6.014-6.014A3.71,3.71,0,0,1,50.981,117.479Zm3.866,7.82.425.425a3.716,3.716,0,0,1,0,5.231l-3.693,3.692a3.718,3.718,0,0,1-5.231,0l-.425-.425a3.714,3.714,0,0,1,0-5.231l3.693-3.693A3.711,3.711,0,0,1,54.847,125.3Z" transform="translate(-19.365 -77.761)" fill="none" stroke="#b0c91c" stroke-miterlimit="22.926" stroke-width="2"/>
  </g>
</svg>
