<svg id="Group_42" data-name="Group 42" xmlns="http://www.w3.org/2000/svg" xmlns:xlink="http://www.w3.org/1999/xlink" width="64.5" height="64.762" viewBox="0 0 64.5 64.762">
  <defs>
    <clipPath id="clip-path">
      <rect id="Rectangle_24" data-name="Rectangle 24" width="64.5" height="64.762" fill="none" stroke="#b0c91c" stroke-width="2"/>
    </clipPath>
  </defs>
  <line id="Line_26" data-name="Line 26" y2="10.636" transform="translate(18.179 12.899)" fill="none" stroke="#b0c91c" stroke-linecap="round" stroke-linejoin="round" stroke-width="2"/>
  <line id="Line_27" data-name="Line 27" x2="5.818" transform="translate(18.178 12.9)" fill="none" stroke="#b0c91c" stroke-linecap="round" stroke-linejoin="round" stroke-width="2"/>
  <line id="Line_28" data-name="Line 28" x2="4.586" transform="translate(18.178 18.217)" fill="none" stroke="#b0c91c" stroke-linecap="round" stroke-linejoin="round" stroke-width="2"/>
  <g id="Group_35" data-name="Group 35">
    <g id="Group_34" data-name="Group 34" clip-path="url(#clip-path)">
      <path id="Path_78" data-name="Path 78" d="M110.67,49.934h1.474a2.257,2.257,0,0,1,2.459,1.955v6.727a2.257,2.257,0,0,1-2.459,1.954H110.67a2.257,2.257,0,0,1-2.459-1.954V51.889A2.257,2.257,0,0,1,110.67,49.934Z" transform="translate(-80.257 -37.035)" fill="none" stroke="#b0c91c" stroke-linecap="round" stroke-linejoin="round" stroke-width="2"/>
      <line id="Line_29" data-name="Line 29" y2="10.636" transform="translate(39.634 12.899)" fill="none" stroke="#b0c91c" stroke-linecap="round" stroke-linejoin="round" stroke-width="2"/>
      <line id="Line_30" data-name="Line 30" x2="3.602" y2="4.734" transform="translate(42.72 18.937)" fill="none" stroke="#b0c91c" stroke-linecap="round" stroke-linejoin="round" stroke-width="2"/>
      <path id="Path_79" data-name="Path 79" d="M153.422,49.934h4.369a2.129,2.129,0,0,1,2.319,1.844v2.153a2.13,2.13,0,0,1-2.319,1.844h-4.37" transform="translate(-113.788 -37.035)" fill="none" stroke="#b0c91c" stroke-linecap="round" stroke-linejoin="round" stroke-width="2"/>
      <line id="Line_31" data-name="Line 31" y2="10.636" transform="translate(46.38 28.551)" fill="none" stroke="#b0c91c" stroke-linecap="round" stroke-linejoin="round" stroke-width="2"/>
      <line id="Line_32" data-name="Line 32" x2="5.818" transform="translate(46.379 28.552)" fill="none" stroke="#b0c91c" stroke-linecap="round" stroke-linejoin="round" stroke-width="2"/>
      <line id="Line_33" data-name="Line 33" x2="4.586" transform="translate(46.379 33.87)" fill="none" stroke="#b0c91c" stroke-linecap="round" stroke-linejoin="round" stroke-width="2"/>
      <line id="Line_34" data-name="Line 34" x2="5.818" transform="translate(46.379 39.187)" fill="none" stroke="#b0c91c" stroke-linecap="round" stroke-linejoin="round" stroke-width="2"/>
      <line id="Line_35" data-name="Line 35" x2="6.342" transform="translate(24.035 37.129)" fill="none" stroke="#b0c91c" stroke-linecap="round" stroke-linejoin="round" stroke-width="2"/>
      <line id="Line_36" data-name="Line 36" y2="10.636" transform="translate(35.662 28.551)" fill="none" stroke="#b0c91c" stroke-linecap="round" stroke-linejoin="round" stroke-width="2"/>
      <line id="Line_37" data-name="Line 37" x2="5.818" transform="translate(35.661 39.187)" fill="none" stroke="#b0c91c" stroke-linecap="round" stroke-linejoin="round" stroke-width="2"/>
      <path id="Path_80" data-name="Path 80" d="M9.063,24.614h53.6c2.3,0,4.188,1.505,4.188,3.33V60.358c0,1.825-1.893,3.33-4.188,3.33H9.063c-2.3,0-4.188-1.5-4.188-3.33V27.944C4.875,26.112,6.759,24.614,9.063,24.614Z" transform="translate(-3.616 -18.255)" fill="none" stroke="#b0c91c" stroke-linecap="round" stroke-linejoin="round" stroke-width="2"/>
      <path id="Path_81" data-name="Path 81" d="M51.838,110.76l-2.2-.188c-6.472-.554-5.884,4.387-1,5.274s5.474,5.828-1,5.274l-2.2-.188" transform="translate(-33.283 -81.976)" fill="none" stroke="#b0c91c" stroke-linecap="round" stroke-linejoin="round" stroke-width="2"/>
      <path id="Path_82" data-name="Path 82" d="M98.415,121.165l-2.836-10.635-1.611.019-.1-.019-2.836,10.635" transform="translate(-67.519 -81.977)" fill="none" stroke="#b0c91c" stroke-linecap="round" stroke-linejoin="round" stroke-width="2"/>
      <path id="Path_83" data-name="Path 83" d="M91.35,236.2c-3.183-1.98-10.089-3.352-18.1-3.352-7.693,0-14.369,1.266-17.7,3.121" transform="translate(-41.2 -172.693)" fill="none" stroke="#b0c91c" stroke-linecap="round" stroke-linejoin="round" stroke-width="2"/>
      <line id="Line_38" data-name="Line 38" y2="13.769" transform="translate(35.637 45.726)" fill="none" stroke="#b0c91c" stroke-linecap="round" stroke-linejoin="round" stroke-width="2"/>
      <line id="Line_39" data-name="Line 39" y1="13.962" transform="translate(28.863 45.533)" fill="none" stroke="#b0c91c" stroke-linecap="round" stroke-linejoin="round" stroke-width="2"/>
      <path id="Path_84" data-name="Path 84" d="M111.729,8.928V6.692a1.822,1.822,0,0,1,1.817-1.817h3.14A1.823,1.823,0,0,1,118.5,6.692V9.121" transform="translate(-82.866 -3.616)" fill="none" stroke="#b0c91c" stroke-linecap="round" stroke-linejoin="round" stroke-width="2"/>
    </g>
  </g>
</svg>
