<svg xmlns="http://www.w3.org/2000/svg" width="20.696" height="20.669" viewBox="0 0 20.696 20.669">
  <g id="Iconly_Two-tone_Folder" data-name="Iconly/Two-tone/Folder" transform="translate(-2.026 -1.526)">
    <g id="Folder" transform="translate(2.776 2.276)">
      <path id="Path_33957" d="M19.919,14.232l-.75,0v0ZM7.642.75v0Zm1.826.913-.6.45h0Zm.913,1.214-.6.451h0Zm1.826.913,0,.75h0Zm7.741,5.477.75,0v0Zm-.777,4.966a4.982,4.982,0,0,1-1.282,3.655,4.982,4.982,0,0,1-3.655,1.282v1.5a6.466,6.466,0,0,0,4.715-1.721,6.466,6.466,0,0,0,1.721-4.715Zm-4.937,4.937H6.446v1.5h7.786Zm-7.786,0a5,5,0,0,1-3.663-1.282A4.978,4.978,0,0,1,1.5,14.232H0a6.462,6.462,0,0,0,1.723,4.716,6.48,6.48,0,0,0,4.723,1.721ZM1.5,14.232v-7.8H0v7.8Zm0-7.8a5.92,5.92,0,0,1,.941-3.718A3.787,3.787,0,0,1,5.643,1.5V0A5.261,5.261,0,0,0,1.268,1.784,7.356,7.356,0,0,0,0,6.437ZM5.643,1.5h2V0h-2Zm2,0a1.532,1.532,0,0,1,1.226.613l1.2-.9A3.032,3.032,0,0,0,7.642,0Zm1.226.614.913,1.214,1.2-.9-.913-1.214Zm.913,1.214A3.041,3.041,0,0,0,12.2,4.54l0-1.5a1.541,1.541,0,0,1-1.228-.614ZM12.206,4.54h2.83V3.04h-2.83Zm2.83,0a3.964,3.964,0,0,1,3.23,1.106A5.49,5.49,0,0,1,19.2,9.266h1.5a6.915,6.915,0,0,0-1.29-4.595A5.423,5.423,0,0,0,15.035,3.04ZM19.2,9.262l-.027,4.966,1.5.008L20.7,9.271Z" transform="translate(-0.75 -0.75)" fill="#124062"/>
      <path id="Line_194" d="M.75,0a.75.75,0,0,0,0,1.5Zm9.593,1.5a.75.75,0,1,0,0-1.5ZM.75,1.5h9.593V0H.75Z" transform="translate(4.033 11.463)" fill="#124062"/>
    </g>
  </g>
</svg>
