<svg xmlns="http://www.w3.org/2000/svg" width="20.5" height="21.5" viewBox="0 0 20.5 21.5">
  <g id="Iconly_Two-tone_Home" data-name="Iconly/Two-tone/Home" transform="translate(-1.75 -1.25)">
    <g id="Home" transform="translate(2.5 2)">
      <path id="Home-2" data-name="Home" d="M6.657,19.521a.75.75,0,0,0,1.5,0Zm.75-3.067h0Zm1.424-1.419v-.75h0Zm4.319,4.5h0Zm1.2,1.219-.017.75h.017Zm1.924,0v0ZM19.75,8.588h.75v-.01Zm-.962-1.9-.468.586.013.01Zm-6.58-5.248.468-.586h0Zm-3.944,0L7.8.848l0,0ZM1.712,6.693l.453.6.016-.013ZM.75,8.6,0,8.59V8.6ZM8.157,19.521V16.455h-1.5v3.067Zm0-3.067a.676.676,0,0,1,.679-.669l-.01-1.5a2.176,2.176,0,0,0-2.169,2.169Zm.674-.669h2.886v-1.5H8.831Zm2.886,0a.676.676,0,0,1,.683.669h1.5a2.176,2.176,0,0,0-2.183-2.169Zm.683.669v3.076h1.5V16.455Zm0,3.076A1.975,1.975,0,0,0,14.336,21.5L14.37,20c-.268-.006-.47-.469-.47-.469ZM14.353,21.5h1.924V20H14.353Zm1.924,0A4.206,4.206,0,0,0,20.5,17.312H19A2.706,2.706,0,0,1,16.277,20ZM20.5,17.312V8.588H19v8.724Zm0-8.734a3.189,3.189,0,0,0-1.257-2.491l-.91,1.192A1.69,1.69,0,0,1,19,8.6ZM19.256,6.1,12.675.849,11.74,2.022l6.58,5.248ZM12.674.848A3.93,3.93,0,0,0,7.8.848l.932,1.176a2.43,2.43,0,0,1,3.013,0Zm-4.88,0L1.243,6.108l.939,1.17L8.733,2.02ZM1.259,6.095A3.17,3.17,0,0,0,0,8.59L1.5,8.6A1.67,1.67,0,0,1,2.165,7.29ZM0,8.6v8.714H1.5V8.6Zm0,8.714A4.206,4.206,0,0,0,4.223,21.5V20A2.706,2.706,0,0,1,1.5,17.312ZM4.223,21.5H6.147V20H4.223Zm1.924,0a1.985,1.985,0,0,0,1.991-1.979h-1.5A.485.485,0,0,1,6.147,20Z" transform="translate(-0.75 -0.75)" fill="#124062"/>
    </g>
  </g>
</svg>
