<svg xmlns="http://www.w3.org/2000/svg" xmlns:xlink="http://www.w3.org/1999/xlink" width="326.768" height="55.249" viewBox="0 0 326.768 55.249">
  <defs>
    <clipPath id="clip-path">
      <rect id="Rectangle_838" data-name="Rectangle 838" width="326.768" height="55.249" fill="none"/>
    </clipPath>
  </defs>
  <g id="Group_1295" data-name="Group 1295" clip-path="url(#clip-path)">
    <path id="Path_3188" data-name="Path 3188" d="M356.413,70.976a3.556,3.556,0,0,1-2.444-.913,3.247,3.247,0,0,1-1.026-2.557,3.309,3.309,0,0,1,.982-2.4,3.248,3.248,0,0,1,2.42-1.005,3.384,3.384,0,0,1,2.455.993,3.527,3.527,0,0,1,0,4.955,3.432,3.432,0,0,1-2.386.924" transform="translate(-95.523 -17.349)" fill="#00b0eb"/>
    <path id="Path_3189" data-name="Path 3189" d="M154.755,18.586a5.85,5.85,0,0,1-.516,2.265,8.159,8.159,0,0,1-1.623,2.393,8.269,8.269,0,0,1-2.826,1.907,10.17,10.17,0,0,1-4.007.733,14.076,14.076,0,0,1-3.155-.329,8.877,8.877,0,0,1-2.58-1.025,8.674,8.674,0,0,1-2.131-1.831,10.876,10.876,0,0,1-1.48-2.311,12.058,12.058,0,0,1-.92-2.729,14.939,14.939,0,0,1-.306-3.081,13.647,13.647,0,0,1,.771-4.74,10.1,10.1,0,0,1,2.2-3.581,9.621,9.621,0,0,1,3.365-2.266,10.9,10.9,0,0,1,4.113-.777A10.263,10.263,0,0,1,150.4,4.275,8.571,8.571,0,0,1,153.589,6.9,5.175,5.175,0,0,1,154.7,9.852a1.925,1.925,0,0,1-.538,1.346,1.708,1.708,0,0,1-1.3.583,1.8,1.8,0,0,1-1.279-.4,5.6,5.6,0,0,1-.949-1.391,6.7,6.7,0,0,0-2.041-2.437,4.989,4.989,0,0,0-2.893-.807,5.243,5.243,0,0,0-4.359,2.078,9.406,9.406,0,0,0-1.623,5.907,10.967,10.967,0,0,0,.718,4.254,5.374,5.374,0,0,0,2.033,2.535,5.622,5.622,0,0,0,3.082.837,5.407,5.407,0,0,0,3.237-.95,5.728,5.728,0,0,0,2-2.789,4.737,4.737,0,0,1,.7-1.413,1.587,1.587,0,0,1,1.346-.546,1.882,1.882,0,0,1,1.361.554,1.844,1.844,0,0,1,.568,1.376" transform="translate(-36.594 -0.87)" fill="#1a1818"/>
    <path id="Path_3190" data-name="Path 3190" d="M180.545,19.836a9.653,9.653,0,0,1-.568,3.365,7.431,7.431,0,0,1-1.644,2.647,7.248,7.248,0,0,1-2.572,1.7,9.1,9.1,0,0,1-3.365.592,8.86,8.86,0,0,1-3.335-.6,7.361,7.361,0,0,1-4.209-4.344,9.636,9.636,0,0,1-.56-3.358,9.743,9.743,0,0,1,.567-3.394,7.389,7.389,0,0,1,1.632-2.633,7.181,7.181,0,0,1,2.571-1.681,9.731,9.731,0,0,1,6.7.007,7.236,7.236,0,0,1,4.225,4.337,9.7,9.7,0,0,1,.559,3.364m-4.1,0a6.118,6.118,0,0,0-1.1-3.887,3.566,3.566,0,0,0-2.953-1.391,3.659,3.659,0,0,0-2.108.621,3.934,3.934,0,0,0-1.406,1.831,7.457,7.457,0,0,0-.493,2.826,7.412,7.412,0,0,0,.486,2.8,4.008,4.008,0,0,0,1.39,1.832,3.616,3.616,0,0,0,2.131.636,3.56,3.56,0,0,0,2.953-1.4,6.1,6.1,0,0,0,1.1-3.866" transform="translate(-44.465 -3.122)" fill="#1a1818"/>
    <path id="Path_3191" data-name="Path 3191" d="M203.006,20.135v5.428a2.792,2.792,0,0,1-.584,1.93,1.98,1.98,0,0,1-1.54.643,1.924,1.924,0,0,1-1.5-.643,2.813,2.813,0,0,1-.575-1.93v-6.5a20.966,20.966,0,0,0-.105-2.392,2.6,2.6,0,0,0-.569-1.4,1.819,1.819,0,0,0-1.464-.546,2.605,2.605,0,0,0-2.64,1.376,9.691,9.691,0,0,0-.635,3.947v5.518a2.821,2.821,0,0,1-.575,1.922,1.93,1.93,0,0,1-1.519.651,1.955,1.955,0,0,1-1.517-.651,2.768,2.768,0,0,1-.591-1.922V13.885a2.557,2.557,0,0,1,.531-1.75,1.776,1.776,0,0,1,1.4-.6,1.9,1.9,0,0,1,1.4.561,2.093,2.093,0,0,1,.56,1.548v.388a7.111,7.111,0,0,1,2.273-1.869,5.993,5.993,0,0,1,2.691-.6,5.374,5.374,0,0,1,2.647.613,4.8,4.8,0,0,1,1.825,1.854,7.1,7.1,0,0,1,2.214-1.861,5.651,5.651,0,0,1,2.617-.606,5.963,5.963,0,0,1,2.886.658,4.189,4.189,0,0,1,1.81,1.884,8.646,8.646,0,0,1,.523,3.485v7.97a2.792,2.792,0,0,1-.583,1.93,1.982,1.982,0,0,1-1.54.643,1.96,1.96,0,0,1-1.519-.651,2.775,2.775,0,0,1-.589-1.922V18.7a15.891,15.891,0,0,0-.112-2.108,2.425,2.425,0,0,0-.606-1.332,1.93,1.93,0,0,0-1.5-.538,2.738,2.738,0,0,0-1.533.478,3.247,3.247,0,0,0-1.128,1.287,10.21,10.21,0,0,0-.449,3.648" transform="translate(-51.203 -3.122)" fill="#1a1818"/>
    <path id="Path_3192" data-name="Path 3192" d="M238.687,20.135v5.428a2.8,2.8,0,0,1-.583,1.93,1.983,1.983,0,0,1-1.54.643,1.925,1.925,0,0,1-1.5-.643,2.813,2.813,0,0,1-.575-1.93v-6.5a20.936,20.936,0,0,0-.106-2.392,2.588,2.588,0,0,0-.569-1.4,1.818,1.818,0,0,0-1.463-.546,2.607,2.607,0,0,0-2.641,1.376,9.691,9.691,0,0,0-.635,3.947v5.518a2.821,2.821,0,0,1-.575,1.922,1.929,1.929,0,0,1-1.519.651,1.955,1.955,0,0,1-1.516-.651,2.768,2.768,0,0,1-.591-1.922V13.885a2.553,2.553,0,0,1,.531-1.75,1.776,1.776,0,0,1,1.4-.6,1.9,1.9,0,0,1,1.4.561,2.1,2.1,0,0,1,.559,1.548v.388a7.119,7.119,0,0,1,2.273-1.869,5.993,5.993,0,0,1,2.691-.6,5.375,5.375,0,0,1,2.648.613,4.807,4.807,0,0,1,1.825,1.854,7.094,7.094,0,0,1,2.213-1.861,5.654,5.654,0,0,1,2.618-.606,5.96,5.96,0,0,1,2.885.658,4.2,4.2,0,0,1,1.81,1.884,8.648,8.648,0,0,1,.522,3.485v7.97a2.8,2.8,0,0,1-.582,1.93,1.983,1.983,0,0,1-1.541.643,1.96,1.96,0,0,1-1.519-.651,2.775,2.775,0,0,1-.589-1.922V18.7a15.914,15.914,0,0,0-.112-2.108,2.426,2.426,0,0,0-.607-1.332,1.929,1.929,0,0,0-1.5-.538,2.735,2.735,0,0,0-1.532.478,3.236,3.236,0,0,0-1.128,1.287,10.206,10.206,0,0,0-.449,3.648" transform="translate(-60.86 -3.122)" fill="#1a1818"/>
    <path id="Path_3193" data-name="Path 3193" d="M262.943,7.452a2.157,2.157,0,0,1-1.459-.524,1.855,1.855,0,0,1-.605-1.48,1.837,1.837,0,0,1,.621-1.428,2.082,2.082,0,0,1,1.443-.562,2.141,2.141,0,0,1,1.4.508,1.814,1.814,0,0,1,.614,1.481,1.867,1.867,0,0,1-.6,1.473,2.07,2.07,0,0,1-1.421.531m2.019,4.216v11.8a2.636,2.636,0,0,1-.584,1.855,1.931,1.931,0,0,1-1.48.628,1.843,1.843,0,0,1-1.457-.643,2.709,2.709,0,0,1-.562-1.839V11.788a2.617,2.617,0,0,1,.562-1.824,1.883,1.883,0,0,1,1.457-.613,1.955,1.955,0,0,1,1.48.613,2.375,2.375,0,0,1,.584,1.7" transform="translate(-70.606 -0.936)" fill="#1a1818"/>
    <path id="Path_3194" data-name="Path 3194" d="M283.616,22.8a4.737,4.737,0,0,1-3.254,4.718,10.889,10.889,0,0,1-3.91.621,9.525,9.525,0,0,1-3.768-.673,5.484,5.484,0,0,1-2.318-1.682,3.389,3.389,0,0,1-.748-2.027A1.568,1.568,0,0,1,270.1,22.6a1.64,1.64,0,0,1,1.211-.478,1.416,1.416,0,0,1,.988.314,3.421,3.421,0,0,1,.658.882,4.481,4.481,0,0,0,1.5,1.63,4.53,4.53,0,0,0,2.385.538,3.444,3.444,0,0,0,2.012-.546,1.532,1.532,0,0,0,.785-1.249,1.7,1.7,0,0,0-.815-1.57,10.065,10.065,0,0,0-2.684-.942,22.14,22.14,0,0,1-3.432-1.1,5.634,5.634,0,0,1-2.117-1.518,3.478,3.478,0,0,1-.792-2.317,4.087,4.087,0,0,1,.732-2.319,5.032,5.032,0,0,1,2.16-1.742,8.272,8.272,0,0,1,3.448-.651,11.319,11.319,0,0,1,2.849.329,7.1,7.1,0,0,1,2.109.883,4.394,4.394,0,0,1,1.287,1.225,2.407,2.407,0,0,1,.44,1.316,1.524,1.524,0,0,1-.47,1.152,1.871,1.871,0,0,1-1.339.448,1.639,1.639,0,0,1-1.069-.358,7.043,7.043,0,0,1-1.01-1.077,3.69,3.69,0,0,0-1.091-.958,3.442,3.442,0,0,0-1.705-.36,3.338,3.338,0,0,0-1.839.472,1.375,1.375,0,0,0-.734,1.174,1.27,1.27,0,0,0,.538,1.054,4.469,4.469,0,0,0,1.451.68q.91.269,2.512.658a13.391,13.391,0,0,1,3.1,1.107,5.14,5.14,0,0,1,1.825,1.518,3.365,3.365,0,0,1,.621,2" transform="translate(-72.972 -3.123)" fill="#1a1818"/>
    <path id="Path_3195" data-name="Path 3195" d="M304.906,22.8a4.737,4.737,0,0,1-3.254,4.718,10.889,10.889,0,0,1-3.91.621,9.525,9.525,0,0,1-3.768-.673,5.485,5.485,0,0,1-2.318-1.682,3.389,3.389,0,0,1-.748-2.027,1.568,1.568,0,0,1,.478-1.151,1.641,1.641,0,0,1,1.211-.478,1.416,1.416,0,0,1,.988.314,3.421,3.421,0,0,1,.658.882,4.482,4.482,0,0,0,1.5,1.63,4.531,4.531,0,0,0,2.385.538,3.446,3.446,0,0,0,2.012-.546,1.532,1.532,0,0,0,.785-1.249,1.7,1.7,0,0,0-.815-1.57,10.066,10.066,0,0,0-2.684-.942,22.116,22.116,0,0,1-3.432-1.1,5.634,5.634,0,0,1-2.117-1.518,3.474,3.474,0,0,1-.792-2.317,4.087,4.087,0,0,1,.732-2.319,5.032,5.032,0,0,1,2.16-1.742,8.272,8.272,0,0,1,3.448-.651,11.319,11.319,0,0,1,2.849.329,7.1,7.1,0,0,1,2.109.883,4.394,4.394,0,0,1,1.287,1.225,2.407,2.407,0,0,1,.44,1.316,1.524,1.524,0,0,1-.47,1.152,1.871,1.871,0,0,1-1.339.448,1.639,1.639,0,0,1-1.069-.358,7.042,7.042,0,0,1-1.01-1.077,3.69,3.69,0,0,0-1.091-.958,3.442,3.442,0,0,0-1.705-.36,3.337,3.337,0,0,0-1.839.472,1.375,1.375,0,0,0-.734,1.174,1.27,1.27,0,0,0,.538,1.054,4.47,4.47,0,0,0,1.451.68q.91.269,2.512.658a13.392,13.392,0,0,1,3.1,1.107,5.14,5.14,0,0,1,1.825,1.518,3.365,3.365,0,0,1,.621,2" transform="translate(-78.734 -3.123)" fill="#1a1818"/>
    <path id="Path_3196" data-name="Path 3196" d="M315.429,7.452a2.157,2.157,0,0,1-1.459-.524,1.855,1.855,0,0,1-.605-1.48,1.837,1.837,0,0,1,.621-1.428,2.082,2.082,0,0,1,1.443-.562,2.141,2.141,0,0,1,1.4.508,1.814,1.814,0,0,1,.614,1.481,1.867,1.867,0,0,1-.6,1.473,2.069,2.069,0,0,1-1.421.531m2.019,4.216v11.8a2.636,2.636,0,0,1-.584,1.855,1.931,1.931,0,0,1-1.48.628,1.843,1.843,0,0,1-1.457-.643,2.709,2.709,0,0,1-.562-1.839V11.788a2.617,2.617,0,0,1,.562-1.824,1.883,1.883,0,0,1,1.457-.613,1.955,1.955,0,0,1,1.48.613,2.375,2.375,0,0,1,.584,1.7" transform="translate(-84.811 -0.936)" fill="#1a1818"/>
    <path id="Path_3197" data-name="Path 3197" d="M338.2,19.836a9.653,9.653,0,0,1-.568,3.365,7.434,7.434,0,0,1-1.645,2.647,7.255,7.255,0,0,1-2.571,1.7,9.1,9.1,0,0,1-3.365.592,8.86,8.86,0,0,1-3.335-.6,7.35,7.35,0,0,1-4.209-4.344,9.6,9.6,0,0,1-.562-3.358,9.742,9.742,0,0,1,.568-3.394,7.386,7.386,0,0,1,1.63-2.633,7.187,7.187,0,0,1,2.572-1.681,9.731,9.731,0,0,1,6.7.007,7.234,7.234,0,0,1,4.224,4.337,9.671,9.671,0,0,1,.561,3.364m-4.1,0a6.127,6.127,0,0,0-1.1-3.887,3.568,3.568,0,0,0-2.953-1.391,3.656,3.656,0,0,0-2.108.621,3.934,3.934,0,0,0-1.406,1.831,7.457,7.457,0,0,0-.494,2.826,7.383,7.383,0,0,0,.487,2.8,4,4,0,0,0,1.39,1.832,3.613,3.613,0,0,0,2.131.636A3.562,3.562,0,0,0,333,23.7a6.111,6.111,0,0,0,1.1-3.866" transform="translate(-87.132 -3.122)" fill="#1a1818"/>
    <path id="Path_3198" data-name="Path 3198" d="M350.831,13.8v.494a7.15,7.15,0,0,1,2.355-2.086,6.271,6.271,0,0,1,2.939-.666,5.868,5.868,0,0,1,2.886.7,4.468,4.468,0,0,1,1.9,1.989,4.709,4.709,0,0,1,.523,1.616,16.637,16.637,0,0,1,.12,2.213v7.6a2.711,2.711,0,0,1-.559,1.855,1.866,1.866,0,0,1-1.459.628,1.885,1.885,0,0,1-1.481-.643,2.692,2.692,0,0,1-.568-1.839v-6.8a6.8,6.8,0,0,0-.561-3.089,2.285,2.285,0,0,0-2.235-1.069,3.311,3.311,0,0,0-1.988.651,3.74,3.74,0,0,0-1.316,1.787,12.775,12.775,0,0,0-.3,3.41v5.114a2.656,2.656,0,0,1-.575,1.862,1.938,1.938,0,0,1-1.487.621,1.855,1.855,0,0,1-1.452-.643A2.692,2.692,0,0,1,347,25.654v-11.8a2.569,2.569,0,0,1,.508-1.742,1.764,1.764,0,0,1,1.392-.576,1.889,1.889,0,0,1,.972.255,1.819,1.819,0,0,1,.7.763,2.7,2.7,0,0,1,.262,1.241" transform="translate(-93.915 -3.122)" fill="#1a1818"/>
    <path id="Path_3199" data-name="Path 3199" d="M139.1,45.129l4.965,14.7,4.98-14.8q.388-1.165.583-1.622a2.157,2.157,0,0,1,.642-.822,1.886,1.886,0,0,1,1.227-.367,2.053,2.053,0,0,1,1.054.284,2.088,2.088,0,0,1,.764.755,1.864,1.864,0,0,1,.276.95,3.115,3.115,0,0,1-.09.71,6.453,6.453,0,0,1-.225.748q-.136.365-.27.755l-5.307,14.325q-.284.823-.568,1.563a6.611,6.611,0,0,1-.659,1.3,2.944,2.944,0,0,1-.994.92,2.992,2.992,0,0,1-1.519.359,3.038,3.038,0,0,1-1.517-.352,2.879,2.879,0,0,1-1-.927,6.72,6.72,0,0,1-.665-1.308q-.287-.733-.568-1.556l-5.22-14.206q-.135-.389-.276-.763a5.78,5.78,0,0,1-.239-.808,3.377,3.377,0,0,1-.1-.732,1.952,1.952,0,0,1,.613-1.392,2.063,2.063,0,0,1,1.54-.628,1.8,1.8,0,0,1,1.608.7,9.29,9.29,0,0,1,.964,2.22" transform="translate(-36.367 -11.425)" fill="#1a1818"/>
    <path id="Path_3200" data-name="Path 3200" d="M172.45,59.827h-7.986a5.412,5.412,0,0,0,.562,2.452,3.753,3.753,0,0,0,3.447,2.139,4.866,4.866,0,0,0,1.338-.173,4.332,4.332,0,0,0,1.174-.538,8.891,8.891,0,0,0,1.047-.785q.479-.419,1.241-1.137a1.34,1.34,0,0,1,.9-.268,1.478,1.478,0,0,1,1.017.344,1.229,1.229,0,0,1,.389.972,2.667,2.667,0,0,1-.433,1.293,5.183,5.183,0,0,1-1.309,1.422,7.45,7.45,0,0,1-2.2,1.128,9.456,9.456,0,0,1-3.043.449,8.142,8.142,0,0,1-6.117-2.244,8.348,8.348,0,0,1-2.182-6.086,10.137,10.137,0,0,1,.538-3.357,7.4,7.4,0,0,1,1.571-2.654,6.806,6.806,0,0,1,2.541-1.7,9.128,9.128,0,0,1,3.351-.591,7.945,7.945,0,0,1,4.1,1.009,6.653,6.653,0,0,1,2.566,2.61,6.878,6.878,0,0,1,.852,3.259,2.038,2.038,0,0,1-.882,2,5.5,5.5,0,0,1-2.483.456m-7.986-2.318h7.4a4.965,4.965,0,0,0-1.129-3.133,3.383,3.383,0,0,0-2.58-1.039,3.266,3.266,0,0,0-2.5,1.055,5.233,5.233,0,0,0-1.19,3.118" transform="translate(-43.383 -13.667)" fill="#1a1818"/>
    <path id="Path_3201" data-name="Path 3201" d="M188.862,61.245v3.409a2.63,2.63,0,0,1-.584,1.862,1.943,1.943,0,0,1-1.48.621,1.867,1.867,0,0,1-1.45-.628,2.679,2.679,0,0,1-.569-1.855V53.289q0-2.751,1.989-2.752a1.66,1.66,0,0,1,1.466.643,3.55,3.55,0,0,1,.492,1.9,7.168,7.168,0,0,1,1.5-1.9,3.108,3.108,0,0,1,2.057-.643,5.264,5.264,0,0,1,2.5.643,1.919,1.919,0,0,1,1.211,1.7,1.622,1.622,0,0,1-.516,1.234,1.6,1.6,0,0,1-1.114.486,5.06,5.06,0,0,1-1.084-.276,5.074,5.074,0,0,0-1.519-.276,2.226,2.226,0,0,0-1.466.47,3.025,3.025,0,0,0-.882,1.4,9.757,9.757,0,0,0-.433,2.206q-.119,1.279-.12,3.118" transform="translate(-50.01 -13.678)" fill="#1a1818"/>
    <path id="Path_3202" data-name="Path 3202" d="M203.806,46.452a2.157,2.157,0,0,1-1.459-.524,2.029,2.029,0,0,1,.016-2.908,2.082,2.082,0,0,1,1.443-.562,2.141,2.141,0,0,1,1.4.508,1.814,1.814,0,0,1,.614,1.481,1.867,1.867,0,0,1-.6,1.473,2.07,2.07,0,0,1-1.421.531m2.019,4.216v11.8a2.636,2.636,0,0,1-.584,1.855,1.931,1.931,0,0,1-1.48.628,1.843,1.843,0,0,1-1.457-.643,2.709,2.709,0,0,1-.562-1.839V50.788a2.617,2.617,0,0,1,.562-1.824,1.884,1.884,0,0,1,1.457-.613,1.955,1.955,0,0,1,1.48.613,2.375,2.375,0,0,1,.584,1.7" transform="translate(-54.601 -11.491)" fill="#1a1818"/>
    <path id="Path_3203" data-name="Path 3203" d="M210.439,48.643h.973V47.417a7.835,7.835,0,0,1,.486-3.044,3.079,3.079,0,0,1,1.645-1.644,7.967,7.967,0,0,1,3.176-.516q3.575,0,3.575,1.75a1.377,1.377,0,0,1-.373.971,1.167,1.167,0,0,1-.883.4,6.3,6.3,0,0,1-.822-.09,6.665,6.665,0,0,0-.987-.09q-1.107,0-1.421.651a4.4,4.4,0,0,0-.313,1.861v.972h1q2.334,0,2.333,1.406,0,1-.621,1.271a4.407,4.407,0,0,1-1.712.269h-1V62.4a2.661,2.661,0,0,1-.577,1.847,1.914,1.914,0,0,1-1.487.636,1.865,1.865,0,0,1-1.443-.636,2.66,2.66,0,0,1-.575-1.847V51.589h-1.122a2.138,2.138,0,0,1-1.4-.411,1.328,1.328,0,0,1-.495-1.069q0-1.466,2.049-1.466" transform="translate(-56.4 -11.425)" fill="#1a1818"/>
    <path id="Path_3204" data-name="Path 3204" d="M226.741,46.452a2.157,2.157,0,0,1-1.459-.524,2.029,2.029,0,0,1,.016-2.908,2.082,2.082,0,0,1,1.443-.562,2.141,2.141,0,0,1,1.4.508,1.814,1.814,0,0,1,.614,1.481,1.867,1.867,0,0,1-.6,1.473,2.07,2.07,0,0,1-1.421.531m2.019,4.216v11.8a2.636,2.636,0,0,1-.584,1.855,1.931,1.931,0,0,1-1.48.628,1.843,1.843,0,0,1-1.457-.643,2.709,2.709,0,0,1-.562-1.839V50.788a2.617,2.617,0,0,1,.562-1.824,1.884,1.884,0,0,1,1.457-.613,1.955,1.955,0,0,1,1.48.613,2.375,2.375,0,0,1,.584,1.7" transform="translate(-60.808 -11.491)" fill="#1a1818"/>
    <path id="Path_3205" data-name="Path 3205" d="M248.932,62.07a3.513,3.513,0,0,1-.456,1.63,5.6,5.6,0,0,1-1.39,1.653,7.185,7.185,0,0,1-2.355,1.263,9.982,9.982,0,0,1-3.2.479,7.81,7.81,0,0,1-5.906-2.206,8.168,8.168,0,0,1-2.124-5.914,9.734,9.734,0,0,1,.971-4.441,6.982,6.982,0,0,1,2.812-2.984,9.559,9.559,0,0,1,7.305-.59,7.6,7.6,0,0,1,2.243,1.2,5.722,5.722,0,0,1,1.4,1.563,3.088,3.088,0,0,1,.486,1.548,1.627,1.627,0,0,1-.546,1.241,1.87,1.87,0,0,1-1.324.508,1.338,1.338,0,0,1-.845-.261,4.189,4.189,0,0,1-.755-.845,6.191,6.191,0,0,0-1.563-1.7,3.84,3.84,0,0,0-4.987.845,6.114,6.114,0,0,0-1.107,3.866,7.455,7.455,0,0,0,.285,2.116,4.787,4.787,0,0,0,.822,1.645,3.514,3.514,0,0,0,1.3,1.031,3.958,3.958,0,0,0,1.675.352,3.769,3.769,0,0,0,2.1-.569,4.983,4.983,0,0,0,1.548-1.735,3.952,3.952,0,0,1,.806-1.076,1.533,1.533,0,0,1,1.063-.389,1.571,1.571,0,0,1,1.241.568,1.819,1.819,0,0,1,.493,1.211" transform="translate(-63.196 -13.667)" fill="#1a1818"/>
    <path id="Path_3206" data-name="Path 3206" d="M268.061,64.822a12.625,12.625,0,0,1-2.865,1.727,8,8,0,0,1-3.1.576,5.877,5.877,0,0,1-2.76-.621,4.534,4.534,0,0,1-1.831-1.682,4.363,4.363,0,0,1-.643-2.3,4.122,4.122,0,0,1,1.061-2.856,5.312,5.312,0,0,1,2.916-1.584q.388-.09,1.93-.4t2.639-.575q1.1-.261,2.386-.636a4.252,4.252,0,0,0-.651-2.37,2.9,2.9,0,0,0-2.384-.756,4.973,4.973,0,0,0-2.341.433,3.8,3.8,0,0,0-1.346,1.3q-.56.868-.792,1.144a1.3,1.3,0,0,1-.994.276,1.737,1.737,0,0,1-1.19-.441,1.438,1.438,0,0,1-.5-1.129,3.457,3.457,0,0,1,.763-2.094,5.47,5.47,0,0,1,2.378-1.675,10.723,10.723,0,0,1,4.023-.658,11.379,11.379,0,0,1,4.231.636,3.938,3.938,0,0,1,2.176,2.011,8.81,8.81,0,0,1,.635,3.649q0,1.435-.007,2.438t-.023,2.228a8.167,8.167,0,0,0,.382,2.4,7.625,7.625,0,0,1,.38,1.607,1.5,1.5,0,0,1-.59,1.144,1.98,1.98,0,0,1-1.338.516,1.806,1.806,0,0,1-1.241-.591,8.708,8.708,0,0,1-1.3-1.712m-.269-5.907a20.555,20.555,0,0,1-2.61.7q-1.714.367-2.37.538a3.244,3.244,0,0,0-1.257.673,1.724,1.724,0,0,0-.6,1.4,2.069,2.069,0,0,0,.7,1.578,2.6,2.6,0,0,0,1.839.651,4.777,4.777,0,0,0,2.235-.532,3.529,3.529,0,0,0,1.5-1.368,6.244,6.244,0,0,0,.554-3.05Z" transform="translate(-69.518 -13.667)" fill="#1a1818"/>
    <path id="Path_3207" data-name="Path 3207" d="M280.108,48.837h.448V46.385q0-.988.053-1.548a2.268,2.268,0,0,1,.292-.965,1.843,1.843,0,0,1,.688-.68,1.944,1.944,0,0,1,1-.263,2.02,2.02,0,0,1,1.407.583,1.723,1.723,0,0,1,.53.95,8.583,8.583,0,0,1,.113,1.593v2.781h1.5a1.916,1.916,0,0,1,1.323.411,1.363,1.363,0,0,1,.456,1.055,1.179,1.179,0,0,1-.651,1.151,4.222,4.222,0,0,1-1.863.329h-.761V59.29a12.314,12.314,0,0,0,.066,1.473,1.516,1.516,0,0,0,.359.837,1.23,1.23,0,0,0,.951.322,5.085,5.085,0,0,0,.972-.127,4.986,4.986,0,0,1,.956-.127,1.229,1.229,0,0,1,.891.4,1.333,1.333,0,0,1,.4.98,1.64,1.64,0,0,1-1.077,1.51,7.284,7.284,0,0,1-3.1.524,5.339,5.339,0,0,1-2.9-.643,2.986,2.986,0,0,1-1.3-1.78,12.1,12.1,0,0,1-.307-3.036V51.783h-.538a1.939,1.939,0,0,1-1.346-.419,1.369,1.369,0,0,1-.465-1.061,1.323,1.323,0,0,1,.486-1.055,2.138,2.138,0,0,1,1.413-.411" transform="translate(-75.296 -11.619)" fill="#1a1818"/>
    <path id="Path_3208" data-name="Path 3208" d="M295.964,46.452a2.157,2.157,0,0,1-1.459-.524,2.029,2.029,0,0,1,.016-2.908,2.082,2.082,0,0,1,1.443-.562,2.141,2.141,0,0,1,1.4.508,1.814,1.814,0,0,1,.614,1.481,1.867,1.867,0,0,1-.6,1.473,2.069,2.069,0,0,1-1.421.531m2.019,4.216v11.8a2.636,2.636,0,0,1-.584,1.855,1.931,1.931,0,0,1-1.48.628,1.843,1.843,0,0,1-1.457-.643,2.709,2.709,0,0,1-.562-1.839V50.788a2.617,2.617,0,0,1,.562-1.824,1.883,1.883,0,0,1,1.457-.613,1.955,1.955,0,0,1,1.48.613,2.375,2.375,0,0,1,.584,1.7" transform="translate(-79.543 -11.491)" fill="#1a1818"/>
    <path id="Path_3209" data-name="Path 3209" d="M318.733,58.836a9.652,9.652,0,0,1-.568,3.365,7.43,7.43,0,0,1-1.644,2.647,7.248,7.248,0,0,1-2.572,1.7,9.1,9.1,0,0,1-3.365.591,8.86,8.86,0,0,1-3.335-.6,7.361,7.361,0,0,1-4.209-4.344,9.637,9.637,0,0,1-.56-3.358,9.742,9.742,0,0,1,.567-3.394,7.389,7.389,0,0,1,1.632-2.633,7.181,7.181,0,0,1,2.571-1.681,9.731,9.731,0,0,1,6.7.007,7.237,7.237,0,0,1,4.225,4.337,9.705,9.705,0,0,1,.559,3.364m-4.1,0a6.118,6.118,0,0,0-1.1-3.887,3.566,3.566,0,0,0-2.953-1.391,3.659,3.659,0,0,0-2.108.621,3.933,3.933,0,0,0-1.406,1.831,8.319,8.319,0,0,0-.007,5.623,4.008,4.008,0,0,0,1.39,1.832,3.616,3.616,0,0,0,2.131.636,3.56,3.56,0,0,0,2.953-1.4,6.1,6.1,0,0,0,1.1-3.866" transform="translate(-81.865 -13.678)" fill="#1a1818"/>
    <path id="Path_3210" data-name="Path 3210" d="M331.366,52.8v.494a7.15,7.15,0,0,1,2.355-2.086,6.271,6.271,0,0,1,2.939-.666,5.868,5.868,0,0,1,2.886.7,4.467,4.467,0,0,1,1.9,1.989,4.707,4.707,0,0,1,.523,1.616,16.637,16.637,0,0,1,.12,2.213v7.6a2.711,2.711,0,0,1-.559,1.855,1.866,1.866,0,0,1-1.459.628,1.885,1.885,0,0,1-1.481-.643,2.692,2.692,0,0,1-.568-1.839v-6.8a6.8,6.8,0,0,0-.561-3.089,2.285,2.285,0,0,0-2.235-1.069,3.311,3.311,0,0,0-1.988.651,3.74,3.74,0,0,0-1.316,1.787,12.777,12.777,0,0,0-.3,3.41v5.114a2.657,2.657,0,0,1-.575,1.862,1.938,1.938,0,0,1-1.487.621,1.855,1.855,0,0,1-1.452-.643,2.692,2.692,0,0,1-.568-1.839v-11.8a2.569,2.569,0,0,1,.508-1.742,1.764,1.764,0,0,1,1.392-.576,1.889,1.889,0,0,1,.972.255,1.819,1.819,0,0,1,.7.763,2.7,2.7,0,0,1,.262,1.241" transform="translate(-88.647 -13.678)" fill="#1a1818"/>
    <path id="Path_3211" data-name="Path 3211" d="M383.278,63.043a3.516,3.516,0,0,1-.456,1.629,5.607,5.607,0,0,1-1.391,1.653,7.164,7.164,0,0,1-2.355,1.263,9.981,9.981,0,0,1-3.2.479,7.812,7.812,0,0,1-5.907-2.206,8.165,8.165,0,0,1-2.123-5.914,9.737,9.737,0,0,1,.971-4.442,6.987,6.987,0,0,1,2.811-2.983,9.559,9.559,0,0,1,7.305-.59,7.6,7.6,0,0,1,2.243,1.2,5.738,5.738,0,0,1,1.405,1.563,3.1,3.1,0,0,1,.486,1.548,1.632,1.632,0,0,1-.546,1.241,1.871,1.871,0,0,1-1.324.508,1.336,1.336,0,0,1-.845-.262,4.137,4.137,0,0,1-.755-.845,6.181,6.181,0,0,0-1.563-1.7,3.84,3.84,0,0,0-4.987.845,6.113,6.113,0,0,0-1.107,3.866A7.456,7.456,0,0,0,372.227,62a4.792,4.792,0,0,0,.823,1.645,3.518,3.518,0,0,0,1.3,1.032,3.957,3.957,0,0,0,1.675.352,3.772,3.772,0,0,0,2.1-.569,4.973,4.973,0,0,0,1.548-1.734,3.962,3.962,0,0,1,.807-1.077,1.534,1.534,0,0,1,1.062-.389,1.57,1.57,0,0,1,1.241.568,1.82,1.82,0,0,1,.494,1.211" transform="translate(-99.556 -13.93)" fill="#1a1818"/>
    <path id="Path_3212" data-name="Path 3212" d="M407.336,59.809a9.655,9.655,0,0,1-.568,3.365,7.44,7.44,0,0,1-1.645,2.647,7.262,7.262,0,0,1-2.572,1.7,9.1,9.1,0,0,1-3.365.591,8.846,8.846,0,0,1-3.335-.6,7.355,7.355,0,0,1-4.209-4.344,9.612,9.612,0,0,1-.561-3.357,9.75,9.75,0,0,1,.567-3.394,7.392,7.392,0,0,1,1.631-2.632,7.176,7.176,0,0,1,2.572-1.682,9.737,9.737,0,0,1,6.7.007,7.239,7.239,0,0,1,4.224,4.337,9.692,9.692,0,0,1,.56,3.365m-4.1,0a6.126,6.126,0,0,0-1.1-3.888,3.568,3.568,0,0,0-2.953-1.39,3.657,3.657,0,0,0-2.108.62,3.936,3.936,0,0,0-1.406,1.832,8.308,8.308,0,0,0-.007,5.623,4.007,4.007,0,0,0,1.39,1.832,3.614,3.614,0,0,0,2.131.635,3.561,3.561,0,0,0,2.953-1.4,6.1,6.1,0,0,0,1.1-3.866" transform="translate(-105.845 -13.941)" fill="#1a1818"/>
    <path id="Path_3213" data-name="Path 3213" d="M429.8,60.108v5.428a2.789,2.789,0,0,1-.583,1.929,1.979,1.979,0,0,1-1.54.643,1.923,1.923,0,0,1-1.5-.643,2.814,2.814,0,0,1-.575-1.929V59.031a21.021,21.021,0,0,0-.1-2.392,2.594,2.594,0,0,0-.569-1.4,1.818,1.818,0,0,0-1.465-.546,2.606,2.606,0,0,0-2.64,1.376,9.708,9.708,0,0,0-.635,3.948v5.518a2.821,2.821,0,0,1-.575,1.922,1.928,1.928,0,0,1-1.518.651,1.956,1.956,0,0,1-1.518-.651,2.772,2.772,0,0,1-.591-1.922V53.858a2.56,2.56,0,0,1,.531-1.75,1.778,1.778,0,0,1,1.4-.6,1.9,1.9,0,0,1,1.4.56,2.091,2.091,0,0,1,.561,1.548v.389a7.107,7.107,0,0,1,2.273-1.869,5.994,5.994,0,0,1,2.691-.6,5.374,5.374,0,0,1,2.647.613,4.792,4.792,0,0,1,1.825,1.854,7.1,7.1,0,0,1,2.213-1.862,5.653,5.653,0,0,1,2.617-.605,5.963,5.963,0,0,1,2.886.658,4.187,4.187,0,0,1,1.81,1.884,8.656,8.656,0,0,1,.523,3.485v7.97a2.793,2.793,0,0,1-.583,1.929,1.981,1.981,0,0,1-1.541.643,1.957,1.957,0,0,1-1.518-.651,2.772,2.772,0,0,1-.59-1.922V58.672a15.78,15.78,0,0,0-.112-2.108,2.42,2.42,0,0,0-.606-1.332,1.932,1.932,0,0,0-1.494-.538,2.738,2.738,0,0,0-1.533.478,3.247,3.247,0,0,0-1.129,1.286,10.218,10.218,0,0,0-.449,3.649" transform="translate(-112.584 -13.941)" fill="#1a1818"/>
    <path id="Path_3214" data-name="Path 3214" d="M89.773,55.249H74.757a2.553,2.553,0,0,1,0-5.105H87.22V22.823L67.366,5.96,48.308,23.519a2.551,2.551,0,0,1-1.73.675H33.028a2.553,2.553,0,0,1,0-5.105H45.582L65.567.675A2.553,2.553,0,0,1,68.949.607L91.426,19.7a2.553,2.553,0,0,1,.9,1.946V52.7a2.553,2.553,0,0,1-2.553,2.553" transform="translate(-8.248 0)" fill="#1a1818"/>
    <path id="Path_3215" data-name="Path 3215" d="M42.685,59.676h-25.7a2.553,2.553,0,1,1,0-5.105h25.7a2.553,2.553,0,1,1,0,5.105" transform="translate(-3.905 -14.769)" fill="#1a1818"/>
    <path id="Path_3216" data-name="Path 3216" d="M49.369,45.453H41.675a2.553,2.553,0,0,1,0-5.105h7.694a2.553,2.553,0,1,1,0,5.105" transform="translate(-10.588 -10.92)" fill="#1a1818"/>
    <path id="Path_3217" data-name="Path 3217" d="M2.553,59.566A2.553,2.553,0,0,1,0,57.013v-.082a2.553,2.553,0,0,1,5.105,0v.082a2.553,2.553,0,0,1-2.553,2.553" transform="translate(0 -14.717)" fill="#1a1818"/>
    <path id="Path_3218" data-name="Path 3218" d="M28.207,45.4a2.553,2.553,0,0,1-1.794-4.369l.058-.058A2.553,2.553,0,0,1,30.059,44.6L30,44.661a2.545,2.545,0,0,1-1.794.737" transform="translate(-6.943 -10.889)" fill="#1a1818"/>
    <path id="Path_3219" data-name="Path 3219" d="M64.154,73.83H36.041a2.553,2.553,0,1,1,0-5.105H64.154a2.553,2.553,0,1,1,0,5.105" transform="translate(-9.063 -18.6)" fill="#1a1818"/>
    <path id="Path_3220" data-name="Path 3220" d="M86,44.041a2.548,2.548,0,0,1-1.721-.667L72.421,32.546a2.553,2.553,0,1,1,3.443-3.771l10.131,9.251,22.85-21.011a2.553,2.553,0,1,1,3.456,3.758L87.729,43.367A2.546,2.546,0,0,1,86,44.041" transform="translate(-19.375 -4.423)" fill="#00b0eb"/>
  </g>
</svg>
