<svg xmlns="http://www.w3.org/2000/svg" xmlns:xlink="http://www.w3.org/1999/xlink" width="274.028" height="16.162" viewBox="0 0 274.028 16.162">
  <defs>
    <clipPath id="clip-path">
      <rect id="Rectangle_836" data-name="Rectangle 836" width="274.028" height="16.162" fill="none"/>
    </clipPath>
  </defs>
  <g id="Group_1292" data-name="Group 1292" clip-path="url(#clip-path)">
    <path id="Path_3155" data-name="Path 3155" d="M520.422,29.646a2.185,2.185,0,0,1-1.5-.561,1.994,1.994,0,0,1-.631-1.571,2.033,2.033,0,0,1,.6-1.473,2,2,0,0,1,1.487-.618,2.079,2.079,0,0,1,1.509.61,2.167,2.167,0,0,1,0,3.045,2.108,2.108,0,0,1-1.467.568" transform="translate(-285.982 -14.027)" fill="#00b0eb"/>
    <path id="Path_3156" data-name="Path 3156" d="M78.414,13.852a3.6,3.6,0,0,1-.317,1.392,5.032,5.032,0,0,1-1,1.471,5.086,5.086,0,0,1-1.737,1.172,6.251,6.251,0,0,1-2.463.45,8.651,8.651,0,0,1-1.939-.2,5.46,5.46,0,0,1-1.585-.63,5.329,5.329,0,0,1-1.309-1.125,6.686,6.686,0,0,1-.91-1.42,7.389,7.389,0,0,1-.565-1.677,9.15,9.15,0,0,1-.189-1.893,8.4,8.4,0,0,1,.474-2.913,6.216,6.216,0,0,1,1.355-2.2A5.915,5.915,0,0,1,70.3,4.883,6.691,6.691,0,0,1,72.827,4.4a6.309,6.309,0,0,1,2.913.653A5.267,5.267,0,0,1,77.7,6.671a3.18,3.18,0,0,1,.68,1.814,1.183,1.183,0,0,1-.331.827,1.05,1.05,0,0,1-.8.358,1.106,1.106,0,0,1-.786-.248,3.44,3.44,0,0,1-.584-.855,4.114,4.114,0,0,0-1.255-1.5,3.064,3.064,0,0,0-1.778-.5,3.223,3.223,0,0,0-2.679,1.277,5.783,5.783,0,0,0-1,3.63A6.74,6.74,0,0,0,69.61,14.1a3.3,3.3,0,0,0,1.25,1.558,3.453,3.453,0,0,0,1.893.515,3.323,3.323,0,0,0,1.99-.584A3.522,3.522,0,0,0,75.97,13.87,2.912,2.912,0,0,1,76.4,13a.975.975,0,0,1,.827-.336,1.157,1.157,0,0,1,.836.34,1.133,1.133,0,0,1,.349.845" transform="translate(-36.64 -2.431)" fill="#1a1818"/>
    <path id="Path_3157" data-name="Path 3157" d="M105.472,17.829a5.932,5.932,0,0,1-.349,2.068,4.568,4.568,0,0,1-1.011,1.627,4.457,4.457,0,0,1-1.58,1.043,5.592,5.592,0,0,1-2.068.364,5.445,5.445,0,0,1-2.049-.368,4.52,4.52,0,0,1-2.587-2.67,5.911,5.911,0,0,1-.345-2.064,5.987,5.987,0,0,1,.349-2.086,4.54,4.54,0,0,1,1-1.618,4.415,4.415,0,0,1,1.58-1.033,5.98,5.98,0,0,1,4.117,0,4.448,4.448,0,0,1,2.6,2.666,5.953,5.953,0,0,1,.344,2.067m-2.518,0a3.762,3.762,0,0,0-.675-2.389,2.192,2.192,0,0,0-1.815-.855,2.247,2.247,0,0,0-1.3.381,2.417,2.417,0,0,0-.864,1.125,4.582,4.582,0,0,0-.3,1.737,4.546,4.546,0,0,0,.3,1.718,2.46,2.46,0,0,0,.854,1.126,2.221,2.221,0,0,0,1.31.391,2.188,2.188,0,0,0,1.815-.859,3.753,3.753,0,0,0,.675-2.376" transform="translate(-52.686 -7.024)" fill="#1a1818"/>
    <path id="Path_3158" data-name="Path 3158" d="M128.872,18.013v3.336a1.716,1.716,0,0,1-.359,1.186,1.218,1.218,0,0,1-.947.4,1.183,1.183,0,0,1-.924-.4,1.731,1.731,0,0,1-.354-1.186v-4a12.9,12.9,0,0,0-.064-1.47,1.6,1.6,0,0,0-.35-.86,1.118,1.118,0,0,0-.9-.335,1.6,1.6,0,0,0-1.623.846,5.963,5.963,0,0,0-.39,2.426v3.391a1.734,1.734,0,0,1-.354,1.181,1.185,1.185,0,0,1-.933.4,1.2,1.2,0,0,1-.933-.4,1.7,1.7,0,0,1-.363-1.181V14.172a1.574,1.574,0,0,1,.326-1.075,1.093,1.093,0,0,1,.859-.368,1.168,1.168,0,0,1,.859.345,1.285,1.285,0,0,1,.345.952v.238a4.374,4.374,0,0,1,1.4-1.149,3.683,3.683,0,0,1,1.654-.368,3.3,3.3,0,0,1,1.627.377,2.948,2.948,0,0,1,1.121,1.139,4.359,4.359,0,0,1,1.36-1.144,3.474,3.474,0,0,1,1.608-.372,3.665,3.665,0,0,1,1.774.4,2.576,2.576,0,0,1,1.112,1.158,5.321,5.321,0,0,1,.321,2.142v4.9a1.718,1.718,0,0,1-.358,1.186,1.219,1.219,0,0,1-.947.4,1.2,1.2,0,0,1-.933-.4,1.7,1.7,0,0,1-.363-1.181V17.131a9.691,9.691,0,0,0-.069-1.3,1.487,1.487,0,0,0-.372-.818,1.186,1.186,0,0,0-.918-.331,1.682,1.682,0,0,0-.942.294,2,2,0,0,0-.694.791,6.274,6.274,0,0,0-.276,2.242" transform="translate(-66.423 -7.024)" fill="#1a1818"/>
    <path id="Path_3159" data-name="Path 3159" d="M164.554,18.013v3.336a1.716,1.716,0,0,1-.359,1.186,1.218,1.218,0,0,1-.947.4,1.183,1.183,0,0,1-.924-.4,1.731,1.731,0,0,1-.354-1.186v-4a12.908,12.908,0,0,0-.064-1.47,1.6,1.6,0,0,0-.35-.86,1.118,1.118,0,0,0-.9-.335,1.6,1.6,0,0,0-1.623.846,5.964,5.964,0,0,0-.39,2.426v3.391a1.734,1.734,0,0,1-.354,1.181,1.185,1.185,0,0,1-.933.4,1.2,1.2,0,0,1-.933-.4,1.7,1.7,0,0,1-.363-1.181V14.172a1.574,1.574,0,0,1,.326-1.075,1.093,1.093,0,0,1,.859-.368,1.168,1.168,0,0,1,.859.345,1.285,1.285,0,0,1,.345.952v.238a4.374,4.374,0,0,1,1.4-1.149,3.683,3.683,0,0,1,1.654-.368,3.3,3.3,0,0,1,1.627.377,2.948,2.948,0,0,1,1.121,1.139,4.36,4.36,0,0,1,1.36-1.144,3.474,3.474,0,0,1,1.608-.372,3.664,3.664,0,0,1,1.774.4,2.576,2.576,0,0,1,1.113,1.158,5.322,5.322,0,0,1,.321,2.142v4.9a1.718,1.718,0,0,1-.358,1.186,1.219,1.219,0,0,1-.947.4,1.2,1.2,0,0,1-.933-.4,1.7,1.7,0,0,1-.363-1.181V17.131a9.691,9.691,0,0,0-.069-1.3,1.487,1.487,0,0,0-.372-.818,1.186,1.186,0,0,0-.918-.331,1.682,1.682,0,0,0-.942.294,2,2,0,0,0-.694.791,6.275,6.275,0,0,0-.276,2.242" transform="translate(-86.112 -7.024)" fill="#1a1818"/>
    <path id="Path_3160" data-name="Path 3160" d="M193.339,7.105a1.325,1.325,0,0,1-.9-.322,1.139,1.139,0,0,1-.372-.909A1.13,1.13,0,0,1,192.453,5a1.28,1.28,0,0,1,.887-.345,1.316,1.316,0,0,1,.864.312,1.115,1.115,0,0,1,.377.91,1.147,1.147,0,0,1-.368.9,1.271,1.271,0,0,1-.873.326M194.58,9.7v7.251a1.62,1.62,0,0,1-.359,1.14,1.188,1.188,0,0,1-.909.386,1.134,1.134,0,0,1-.9-.4,1.667,1.667,0,0,1-.345-1.13V9.77a1.611,1.611,0,0,1,.345-1.121,1.158,1.158,0,0,1,.9-.377,1.2,1.2,0,0,1,.909.377A1.46,1.46,0,0,1,194.58,9.7" transform="translate(-105.981 -2.566)" fill="#1a1818"/>
    <path id="Path_3161" data-name="Path 3161" d="M209.414,19.65a2.91,2.91,0,0,1-2,2.9,6.692,6.692,0,0,1-2.4.381,5.85,5.85,0,0,1-2.316-.414,3.372,3.372,0,0,1-1.425-1.034,2.082,2.082,0,0,1-.459-1.246.963.963,0,0,1,.294-.707,1.009,1.009,0,0,1,.744-.294.868.868,0,0,1,.606.193,2.092,2.092,0,0,1,.4.542,2.754,2.754,0,0,0,.923,1,2.787,2.787,0,0,0,1.466.331,2.118,2.118,0,0,0,1.236-.336.943.943,0,0,0,.482-.767,1.043,1.043,0,0,0-.5-.965,6.2,6.2,0,0,0-1.65-.579,13.623,13.623,0,0,1-2.109-.675,3.464,3.464,0,0,1-1.3-.933,2.135,2.135,0,0,1-.487-1.424,2.512,2.512,0,0,1,.45-1.425,3.087,3.087,0,0,1,1.328-1.07,5.083,5.083,0,0,1,2.118-.4,6.953,6.953,0,0,1,1.751.2,4.358,4.358,0,0,1,1.3.542,2.689,2.689,0,0,1,.791.753,1.48,1.48,0,0,1,.271.809.934.934,0,0,1-.289.708,1.149,1.149,0,0,1-.822.275,1.008,1.008,0,0,1-.657-.22,4.327,4.327,0,0,1-.621-.662,2.268,2.268,0,0,0-.671-.589,2.115,2.115,0,0,0-1.048-.221,2.051,2.051,0,0,0-1.13.29.845.845,0,0,0-.45.722.781.781,0,0,0,.331.648,2.745,2.745,0,0,0,.892.418q.56.165,1.544.4a8.245,8.245,0,0,1,1.906.68,3.167,3.167,0,0,1,1.121.933,2.068,2.068,0,0,1,.381,1.226" transform="translate(-110.805 -7.024)" fill="#1a1818"/>
    <path id="Path_3162" data-name="Path 3162" d="M230.7,19.65a2.91,2.91,0,0,1-2,2.9,6.692,6.692,0,0,1-2.4.381,5.851,5.851,0,0,1-2.315-.414,3.372,3.372,0,0,1-1.425-1.034,2.082,2.082,0,0,1-.459-1.246.963.963,0,0,1,.294-.707,1.009,1.009,0,0,1,.744-.294.868.868,0,0,1,.606.193,2.092,2.092,0,0,1,.4.542,2.754,2.754,0,0,0,.923,1,2.787,2.787,0,0,0,1.466.331,2.119,2.119,0,0,0,1.236-.336.943.943,0,0,0,.482-.767,1.043,1.043,0,0,0-.5-.965,6.2,6.2,0,0,0-1.65-.579A13.625,13.625,0,0,1,224,17.982a3.464,3.464,0,0,1-1.3-.933,2.135,2.135,0,0,1-.487-1.424,2.511,2.511,0,0,1,.45-1.425,3.087,3.087,0,0,1,1.328-1.07,5.083,5.083,0,0,1,2.118-.4,6.953,6.953,0,0,1,1.751.2,4.358,4.358,0,0,1,1.3.542,2.689,2.689,0,0,1,.791.753,1.48,1.48,0,0,1,.271.809.934.934,0,0,1-.289.708,1.149,1.149,0,0,1-.822.275,1.008,1.008,0,0,1-.657-.22,4.327,4.327,0,0,1-.621-.662,2.268,2.268,0,0,0-.671-.589,2.116,2.116,0,0,0-1.048-.221,2.051,2.051,0,0,0-1.13.29.845.845,0,0,0-.45.722.781.781,0,0,0,.331.648,2.745,2.745,0,0,0,.892.418q.56.165,1.544.4a8.245,8.245,0,0,1,1.906.68,3.166,3.166,0,0,1,1.121.933,2.067,2.067,0,0,1,.381,1.226" transform="translate(-122.552 -7.024)" fill="#1a1818"/>
    <path id="Path_3163" data-name="Path 3163" d="M245.825,7.105a1.325,1.325,0,0,1-.9-.322,1.139,1.139,0,0,1-.372-.909A1.13,1.13,0,0,1,244.939,5a1.28,1.28,0,0,1,.887-.345,1.316,1.316,0,0,1,.864.312,1.115,1.115,0,0,1,.377.91,1.147,1.147,0,0,1-.368.9,1.271,1.271,0,0,1-.873.326M247.066,9.7v7.251a1.62,1.62,0,0,1-.359,1.14,1.188,1.188,0,0,1-.909.386,1.134,1.134,0,0,1-.9-.4,1.667,1.667,0,0,1-.345-1.13V9.77a1.611,1.611,0,0,1,.345-1.121,1.158,1.158,0,0,1,.9-.377,1.2,1.2,0,0,1,.909.377,1.46,1.46,0,0,1,.359,1.047" transform="translate(-134.942 -2.566)" fill="#1a1818"/>
    <path id="Path_3164" data-name="Path 3164" d="M263.124,17.829a5.932,5.932,0,0,1-.349,2.068,4.567,4.567,0,0,1-1.011,1.627,4.456,4.456,0,0,1-1.58,1.043,5.592,5.592,0,0,1-2.068.364,5.445,5.445,0,0,1-2.049-.368,4.52,4.52,0,0,1-2.587-2.67,5.911,5.911,0,0,1-.345-2.064,5.987,5.987,0,0,1,.349-2.086,4.54,4.54,0,0,1,1-1.618,4.415,4.415,0,0,1,1.58-1.033,5.98,5.98,0,0,1,4.117,0,4.448,4.448,0,0,1,2.6,2.666,5.953,5.953,0,0,1,.344,2.067m-2.518,0a3.762,3.762,0,0,0-.676-2.389,2.192,2.192,0,0,0-1.815-.855,2.248,2.248,0,0,0-1.3.381,2.418,2.418,0,0,0-.864,1.125,4.583,4.583,0,0,0-.3,1.737,4.546,4.546,0,0,0,.3,1.718,2.46,2.46,0,0,0,.854,1.126,2.221,2.221,0,0,0,1.31.391,2.188,2.188,0,0,0,1.815-.859,3.753,3.753,0,0,0,.676-2.376" transform="translate(-139.675 -7.024)" fill="#1a1818"/>
    <path id="Path_3165" data-name="Path 3165" d="M280.548,14.117v.3a4.394,4.394,0,0,1,1.447-1.282,3.856,3.856,0,0,1,1.806-.409,3.606,3.606,0,0,1,1.774.432,2.746,2.746,0,0,1,1.167,1.222,2.9,2.9,0,0,1,.321.993,10.231,10.231,0,0,1,.074,1.36V21.4a1.664,1.664,0,0,1-.344,1.14,1.145,1.145,0,0,1-.9.386,1.158,1.158,0,0,1-.91-.4,1.652,1.652,0,0,1-.349-1.13V17.223a4.178,4.178,0,0,0-.345-1.9,1.4,1.4,0,0,0-1.373-.657,2.036,2.036,0,0,0-1.222.4,2.3,2.3,0,0,0-.809,1.1,7.85,7.85,0,0,0-.184,2.1V21.4a1.633,1.633,0,0,1-.354,1.144,1.192,1.192,0,0,1-.914.381,1.139,1.139,0,0,1-.892-.4,1.654,1.654,0,0,1-.349-1.13V14.153a1.579,1.579,0,0,1,.312-1.07,1.083,1.083,0,0,1,.855-.354,1.161,1.161,0,0,1,.6.156,1.121,1.121,0,0,1,.428.469,1.658,1.658,0,0,1,.16.762" transform="translate(-153.503 -7.024)" fill="#1a1818"/>
    <path id="Path_3166" data-name="Path 3166" d="M303.516,6.2l3.051,9.033,3.06-9.1q.239-.716.359-1a1.321,1.321,0,0,1,.394-.505,1.159,1.159,0,0,1,.754-.225,1.263,1.263,0,0,1,.648.175,1.283,1.283,0,0,1,.469.464,1.141,1.141,0,0,1,.17.584,1.914,1.914,0,0,1-.055.437,3.975,3.975,0,0,1-.138.46q-.083.225-.166.464l-3.262,8.8q-.175.506-.349.961a4.083,4.083,0,0,1-.4.8,1.806,1.806,0,0,1-.611.565,1.835,1.835,0,0,1-.933.221,1.869,1.869,0,0,1-.933-.216,1.776,1.776,0,0,1-.615-.57,4.178,4.178,0,0,1-.409-.8c-.117-.3-3.557-9.686-3.557-9.686q-.082-.239-.17-.469a3.686,3.686,0,0,1-.147-.5,2.106,2.106,0,0,1-.06-.45,1.2,1.2,0,0,1,.376-.855,1.269,1.269,0,0,1,.947-.386,1.106,1.106,0,0,1,.988.428,5.69,5.69,0,0,1,.593,1.364" transform="translate(-165.872 -2.431)" fill="#1a1818"/>
    <path id="Path_3167" data-name="Path 3167" d="M334,18.423H329.1a3.332,3.332,0,0,0,.345,1.507,2.308,2.308,0,0,0,2.118,1.315,2.994,2.994,0,0,0,.823-.106,2.668,2.668,0,0,0,.721-.331,5.5,5.5,0,0,0,.644-.482q.294-.257.762-.7a.824.824,0,0,1,.552-.165.907.907,0,0,1,.624.211.755.755,0,0,1,.239.6,1.635,1.635,0,0,1-.266.795,3.17,3.17,0,0,1-.8.874,4.572,4.572,0,0,1-1.351.693,5.808,5.808,0,0,1-1.87.276,5,5,0,0,1-3.759-1.379,5.131,5.131,0,0,1-1.342-3.74,6.229,6.229,0,0,1,.331-2.063,4.546,4.546,0,0,1,.965-1.631,4.184,4.184,0,0,1,1.562-1.043,5.607,5.607,0,0,1,2.059-.363,4.884,4.884,0,0,1,2.523.62,4.087,4.087,0,0,1,1.576,1.6,4.222,4.222,0,0,1,.523,2q0,.947-.542,1.227a3.382,3.382,0,0,1-1.526.28M329.1,17h4.549a3.049,3.049,0,0,0-.694-1.926,2.079,2.079,0,0,0-1.585-.639,2.009,2.009,0,0,0-1.539.648A3.219,3.219,0,0,0,329.1,17" transform="translate(-180.175 -7.001)" fill="#1a1818"/>
    <path id="Path_3168" data-name="Path 3168" d="M353.529,19.309V21.4a1.616,1.616,0,0,1-.359,1.144,1.2,1.2,0,0,1-.909.381,1.148,1.148,0,0,1-.892-.386,1.646,1.646,0,0,1-.35-1.14V14.42q0-1.691,1.223-1.691a1.02,1.02,0,0,1,.9.4,2.181,2.181,0,0,1,.3,1.167,4.4,4.4,0,0,1,.924-1.167,1.908,1.908,0,0,1,1.264-.4,3.234,3.234,0,0,1,1.535.4,1.179,1.179,0,0,1,.744,1.047,1,1,0,0,1-.317.758.981.981,0,0,1-.684.3,3.117,3.117,0,0,1-.666-.17,3.113,3.113,0,0,0-.933-.17,1.368,1.368,0,0,0-.9.289,1.859,1.859,0,0,0-.542.859,5.993,5.993,0,0,0-.267,1.356q-.073.786-.073,1.916" transform="translate(-193.686 -7.024)" fill="#1a1818"/>
    <path id="Path_3169" data-name="Path 3169" d="M369.251,7.105a1.325,1.325,0,0,1-.9-.322,1.139,1.139,0,0,1-.372-.909A1.13,1.13,0,0,1,368.365,5a1.28,1.28,0,0,1,.887-.345,1.316,1.316,0,0,1,.864.312,1.115,1.115,0,0,1,.377.91,1.147,1.147,0,0,1-.368.9,1.271,1.271,0,0,1-.873.326M370.492,9.7v7.251a1.62,1.62,0,0,1-.359,1.14,1.187,1.187,0,0,1-.909.386,1.134,1.134,0,0,1-.9-.4,1.667,1.667,0,0,1-.345-1.13V9.77a1.611,1.611,0,0,1,.345-1.121,1.158,1.158,0,0,1,.9-.377,1.2,1.2,0,0,1,.909.377,1.46,1.46,0,0,1,.359,1.047" transform="translate(-203.046 -2.566)" fill="#1a1818"/>
    <path id="Path_3170" data-name="Path 3170" d="M375.891,8.357h.6V7.6a4.824,4.824,0,0,1,.3-1.87,1.9,1.9,0,0,1,1.011-1.01,4.9,4.9,0,0,1,1.952-.317q2.2,0,2.2,1.075a.847.847,0,0,1-.23.6.716.716,0,0,1-.542.248,3.868,3.868,0,0,1-.505-.055,4.1,4.1,0,0,0-.606-.055q-.68,0-.873.4A2.7,2.7,0,0,0,379,7.759v.6h.615q1.434,0,1.434.864,0,.616-.382.781a2.707,2.707,0,0,1-1.052.165H379v6.644a1.637,1.637,0,0,1-.354,1.135,1.178,1.178,0,0,1-.914.391,1.147,1.147,0,0,1-.887-.391,1.637,1.637,0,0,1-.354-1.135V10.167H375.8a1.315,1.315,0,0,1-.864-.252.816.816,0,0,1-.3-.657q0-.9,1.259-.9" transform="translate(-206.715 -2.431)" fill="#1a1818"/>
    <path id="Path_3171" data-name="Path 3171" d="M392.187,7.105a1.325,1.325,0,0,1-.9-.322,1.139,1.139,0,0,1-.372-.909A1.13,1.13,0,0,1,391.3,5a1.28,1.28,0,0,1,.887-.345,1.316,1.316,0,0,1,.864.312,1.115,1.115,0,0,1,.377.91,1.147,1.147,0,0,1-.368.9,1.271,1.271,0,0,1-.873.326M393.428,9.7v7.251a1.62,1.62,0,0,1-.359,1.14,1.188,1.188,0,0,1-.909.386,1.134,1.134,0,0,1-.9-.4,1.667,1.667,0,0,1-.345-1.13V9.77a1.611,1.611,0,0,1,.345-1.121,1.158,1.158,0,0,1,.9-.377,1.2,1.2,0,0,1,.909.377,1.46,1.46,0,0,1,.359,1.047" transform="translate(-215.701 -2.566)" fill="#1a1818"/>
    <path id="Path_3172" data-name="Path 3172" d="M409.225,19.8a2.164,2.164,0,0,1-.28,1,3.446,3.446,0,0,1-.855,1.016,4.411,4.411,0,0,1-1.447.776,6.133,6.133,0,0,1-1.966.294,4.8,4.8,0,0,1-3.63-1.356,5.02,5.02,0,0,1-1.3-3.635,5.982,5.982,0,0,1,.6-2.729,4.292,4.292,0,0,1,1.727-1.834,5.875,5.875,0,0,1,4.489-.363,4.66,4.66,0,0,1,1.379.735,3.525,3.525,0,0,1,.864.961,1.9,1.9,0,0,1,.3.951,1,1,0,0,1-.335.762,1.15,1.15,0,0,1-.814.312.821.821,0,0,1-.519-.16,2.547,2.547,0,0,1-.464-.519A3.8,3.8,0,0,0,406,14.967a2.36,2.36,0,0,0-3.064.519,3.757,3.757,0,0,0-.68,2.376,4.583,4.583,0,0,0,.175,1.3,2.943,2.943,0,0,0,.506,1.011,2.156,2.156,0,0,0,.8.634,2.432,2.432,0,0,0,1.03.216,2.318,2.318,0,0,0,1.291-.35,3.062,3.062,0,0,0,.951-1.066,2.438,2.438,0,0,1,.5-.661.941.941,0,0,1,.653-.239.965.965,0,0,1,.762.349,1.118,1.118,0,0,1,.3.744" transform="translate(-220.57 -7.001)" fill="#1a1818"/>
    <path id="Path_3173" data-name="Path 3173" d="M429.985,21.492a7.768,7.768,0,0,1-1.76,1.061,4.92,4.92,0,0,1-1.907.354,3.61,3.61,0,0,1-1.7-.382,2.787,2.787,0,0,1-1.125-1.034,2.681,2.681,0,0,1-.395-1.415,2.533,2.533,0,0,1,.652-1.755,3.263,3.263,0,0,1,1.792-.974q.239-.055,1.186-.248t1.622-.354q.676-.161,1.466-.391a2.613,2.613,0,0,0-.4-1.456,1.786,1.786,0,0,0-1.466-.464,3.058,3.058,0,0,0-1.438.266,2.337,2.337,0,0,0-.827.8,8.525,8.525,0,0,1-.487.7.8.8,0,0,1-.611.17,1.067,1.067,0,0,1-.731-.271.883.883,0,0,1-.308-.694,2.123,2.123,0,0,1,.468-1.287,3.364,3.364,0,0,1,1.461-1.029,6.589,6.589,0,0,1,2.472-.4,7,7,0,0,1,2.6.391,2.418,2.418,0,0,1,1.337,1.236,5.407,5.407,0,0,1,.391,2.242q0,.882,0,1.5t-.013,1.369A5.033,5.033,0,0,0,432.5,20.9a4.667,4.667,0,0,1,.234.988.925.925,0,0,1-.363.7,1.215,1.215,0,0,1-.822.317,1.111,1.111,0,0,1-.763-.364,5.367,5.367,0,0,1-.8-1.052m-.165-3.63a12.611,12.611,0,0,1-1.6.428q-1.053.225-1.456.33a1.99,1.99,0,0,0-.772.414,1.059,1.059,0,0,0-.368.859,1.271,1.271,0,0,0,.432.97,1.6,1.6,0,0,0,1.13.4,2.938,2.938,0,0,0,1.374-.327,2.171,2.171,0,0,0,.923-.841,3.837,3.837,0,0,0,.34-1.874Z" transform="translate(-233.459 -7.001)" fill="#1a1818"/>
    <path id="Path_3174" data-name="Path 3174" d="M445.618,8.752h.276V7.245q0-.607.032-.951a1.4,1.4,0,0,1,.179-.593,1.132,1.132,0,0,1,.423-.418,1.2,1.2,0,0,1,.615-.161,1.24,1.24,0,0,1,.864.359,1.063,1.063,0,0,1,.326.584,5.321,5.321,0,0,1,.069.979V8.752h.919a1.177,1.177,0,0,1,.813.252.835.835,0,0,1,.281.649.725.725,0,0,1-.4.707,2.594,2.594,0,0,1-1.144.2H448.4v4.614a7.459,7.459,0,0,0,.041.905.919.919,0,0,0,.221.514.753.753,0,0,0,.584.2,3.13,3.13,0,0,0,.6-.078,3.064,3.064,0,0,1,.588-.078.755.755,0,0,1,.547.243.819.819,0,0,1,.243.6,1.007,1.007,0,0,1-.662.928,4.471,4.471,0,0,1-1.9.322,3.287,3.287,0,0,1-1.783-.4,1.834,1.834,0,0,1-.8-1.094,7.42,7.42,0,0,1-.188-1.865V10.562h-.331a1.192,1.192,0,0,1-.827-.257.839.839,0,0,1-.285-.652.811.811,0,0,1,.3-.649,1.312,1.312,0,0,1,.868-.252" transform="translate(-245.239 -2.826)" fill="#1a1818"/>
    <path id="Path_3175" data-name="Path 3175" d="M461.409,7.105a1.325,1.325,0,0,1-.9-.322,1.139,1.139,0,0,1-.372-.909A1.13,1.13,0,0,1,460.523,5a1.28,1.28,0,0,1,.887-.345,1.316,1.316,0,0,1,.864.312,1.115,1.115,0,0,1,.377.91,1.147,1.147,0,0,1-.367.9,1.271,1.271,0,0,1-.873.326M462.65,9.7v7.251a1.62,1.62,0,0,1-.359,1.14,1.187,1.187,0,0,1-.909.386,1.134,1.134,0,0,1-.9-.4,1.667,1.667,0,0,1-.345-1.13V9.77a1.61,1.61,0,0,1,.345-1.121,1.158,1.158,0,0,1,.9-.377,1.2,1.2,0,0,1,.909.377A1.46,1.46,0,0,1,462.65,9.7" transform="translate(-253.897 -2.566)" fill="#1a1818"/>
    <path id="Path_3176" data-name="Path 3176" d="M478.709,17.829a5.932,5.932,0,0,1-.349,2.068,4.568,4.568,0,0,1-1.011,1.627,4.456,4.456,0,0,1-1.58,1.043,5.592,5.592,0,0,1-2.068.364,5.445,5.445,0,0,1-2.049-.368,4.52,4.52,0,0,1-2.587-2.67,5.911,5.911,0,0,1-.345-2.064,5.987,5.987,0,0,1,.349-2.086,4.539,4.539,0,0,1,1-1.618,4.415,4.415,0,0,1,1.58-1.033,5.98,5.98,0,0,1,4.117,0,4.448,4.448,0,0,1,2.6,2.666,5.953,5.953,0,0,1,.344,2.067m-2.518,0a3.762,3.762,0,0,0-.675-2.389,2.192,2.192,0,0,0-1.815-.855,2.247,2.247,0,0,0-1.3.381,2.418,2.418,0,0,0-.864,1.125,4.582,4.582,0,0,0-.3,1.737,4.546,4.546,0,0,0,.3,1.718,2.46,2.46,0,0,0,.854,1.126,2.221,2.221,0,0,0,1.31.391,2.188,2.188,0,0,0,1.815-.859,3.753,3.753,0,0,0,.675-2.376" transform="translate(-258.631 -7.024)" fill="#1a1818"/>
    <path id="Path_3177" data-name="Path 3177" d="M496.132,14.117v.3a4.395,4.395,0,0,1,1.447-1.282,3.857,3.857,0,0,1,1.806-.409,3.606,3.606,0,0,1,1.774.432,2.746,2.746,0,0,1,1.167,1.222,2.9,2.9,0,0,1,.321.993,10.22,10.22,0,0,1,.074,1.36V21.4a1.664,1.664,0,0,1-.344,1.14,1.145,1.145,0,0,1-.9.386,1.158,1.158,0,0,1-.91-.4,1.652,1.652,0,0,1-.349-1.13V17.223a4.177,4.177,0,0,0-.345-1.9,1.4,1.4,0,0,0-1.373-.657,2.036,2.036,0,0,0-1.222.4,2.3,2.3,0,0,0-.809,1.1,7.852,7.852,0,0,0-.184,2.1V21.4a1.633,1.633,0,0,1-.354,1.144,1.192,1.192,0,0,1-.914.381,1.139,1.139,0,0,1-.892-.4,1.654,1.654,0,0,1-.349-1.13V14.153a1.579,1.579,0,0,1,.312-1.07,1.083,1.083,0,0,1,.855-.354,1.161,1.161,0,0,1,.6.156,1.122,1.122,0,0,1,.428.469,1.658,1.658,0,0,1,.16.762" transform="translate(-272.458 -7.024)" fill="#1a1818"/>
    <path id="Path_3178" data-name="Path 3178" d="M540.676,19.9a2.161,2.161,0,0,1-.28,1,3.447,3.447,0,0,1-.855,1.016,4.4,4.4,0,0,1-1.447.776,6.134,6.134,0,0,1-1.966.294,4.8,4.8,0,0,1-3.63-1.356,5.017,5.017,0,0,1-1.3-3.634,5.984,5.984,0,0,1,.6-2.73,4.294,4.294,0,0,1,1.727-1.833,5.874,5.874,0,0,1,4.489-.363,4.671,4.671,0,0,1,1.379.735,3.527,3.527,0,0,1,.864.961,1.9,1.9,0,0,1,.3.951,1,1,0,0,1-.335.763,1.15,1.15,0,0,1-.814.312.821.821,0,0,1-.519-.161,2.542,2.542,0,0,1-.464-.519,3.8,3.8,0,0,0-.961-1.047,2.36,2.36,0,0,0-3.065.519,3.757,3.757,0,0,0-.68,2.376,4.581,4.581,0,0,0,.175,1.3,2.945,2.945,0,0,0,.506,1.011,2.162,2.162,0,0,0,.8.634,2.432,2.432,0,0,0,1.03.216,2.318,2.318,0,0,0,1.291-.35,3.056,3.056,0,0,0,.951-1.066,2.435,2.435,0,0,1,.5-.662.943.943,0,0,1,.653-.239.965.965,0,0,1,.762.349,1.119,1.119,0,0,1,.3.744" transform="translate(-293.102 -7.056)" fill="#1a1818"/>
    <path id="Path_3179" data-name="Path 3179" d="M564.418,17.928A5.934,5.934,0,0,1,564.069,20a4.572,4.572,0,0,1-1.011,1.627,4.462,4.462,0,0,1-1.58,1.043,5.592,5.592,0,0,1-2.068.363,5.436,5.436,0,0,1-2.049-.368,4.52,4.52,0,0,1-2.587-2.67,5.908,5.908,0,0,1-.345-2.063,5.992,5.992,0,0,1,.349-2.086,4.543,4.543,0,0,1,1-1.618,4.41,4.41,0,0,1,1.581-1.034,5.984,5.984,0,0,1,4.117,0,4.449,4.449,0,0,1,2.6,2.665,5.956,5.956,0,0,1,.344,2.068m-2.518,0a3.765,3.765,0,0,0-.675-2.389,2.193,2.193,0,0,0-1.815-.854,2.247,2.247,0,0,0-1.3.381,2.419,2.419,0,0,0-.864,1.126,4.581,4.581,0,0,0-.3,1.737,4.547,4.547,0,0,0,.3,1.718,2.462,2.462,0,0,0,.854,1.126,2.221,2.221,0,0,0,1.31.39,2.188,2.188,0,0,0,1.815-.859,3.752,3.752,0,0,0,.675-2.376" transform="translate(-305.923 -7.078)" fill="#1a1818"/>
    <path id="Path_3180" data-name="Path 3180" d="M587.817,18.112v3.336a1.716,1.716,0,0,1-.359,1.186,1.216,1.216,0,0,1-.947.4,1.183,1.183,0,0,1-.924-.4,1.729,1.729,0,0,1-.354-1.186v-4a12.814,12.814,0,0,0-.064-1.47,1.59,1.59,0,0,0-.349-.859,1.117,1.117,0,0,0-.9-.335,1.6,1.6,0,0,0-1.623.845,5.965,5.965,0,0,0-.391,2.426v3.391a1.734,1.734,0,0,1-.354,1.181,1.184,1.184,0,0,1-.933.4,1.2,1.2,0,0,1-.933-.4,1.706,1.706,0,0,1-.363-1.181V14.271a1.571,1.571,0,0,1,.326-1.075,1.092,1.092,0,0,1,.859-.368,1.167,1.167,0,0,1,.859.344,1.285,1.285,0,0,1,.344.952v.239a4.373,4.373,0,0,1,1.4-1.149,3.684,3.684,0,0,1,1.654-.368,3.3,3.3,0,0,1,1.626.377,2.942,2.942,0,0,1,1.122,1.139,4.358,4.358,0,0,1,1.36-1.144,3.471,3.471,0,0,1,1.608-.372,3.664,3.664,0,0,1,1.773.4,2.571,2.571,0,0,1,1.112,1.158,5.311,5.311,0,0,1,.322,2.142v4.9a1.718,1.718,0,0,1-.358,1.186,1.218,1.218,0,0,1-.947.4,1.2,1.2,0,0,1-.933-.4,1.706,1.706,0,0,1-.362-1.181V17.23a9.707,9.707,0,0,0-.069-1.3,1.492,1.492,0,0,0-.372-.818,1.188,1.188,0,0,0-.918-.33,1.682,1.682,0,0,0-.942.294,2,2,0,0,0-.694.79,6.29,6.29,0,0,0-.275,2.242" transform="translate(-319.661 -7.078)" fill="#1a1818"/>
    <path id="Path_3181" data-name="Path 3181" d="M31.369,16.162h-4.3a.9.9,0,1,1,0-1.793h3.407V6.781l-5.52-4.689L19.6,7.026a.9.9,0,0,1-.607.238H15.107a.9.9,0,0,1,0-1.793h3.533L24.32.237A.9.9,0,0,1,25.508.213l6.441,5.471a.9.9,0,0,1,.316.684v8.9a.9.9,0,0,1-.9.9" transform="translate(-7.841 0)" fill="#1a1818"/>
    <path id="Path_3182" data-name="Path 3182" d="M14.99,27.24H7.623a.9.9,0,1,1,0-1.793H14.99a.9.9,0,0,1,0,1.793" transform="translate(-3.712 -14.041)" fill="#1a1818"/>
    <path id="Path_3183" data-name="Path 3183" d="M21.344,20.607h-2.2a.9.9,0,1,1,0-1.793h2.2a.9.9,0,1,1,0,1.793" transform="translate(-10.066 -10.381)" fill="#1a1818"/>
    <path id="Path_3184" data-name="Path 3184" d="M.9,27.189a.9.9,0,0,1-.9-.9.907.907,0,0,1,.9-.908.887.887,0,0,1,.9.884v.024a.9.9,0,0,1-.9.9" transform="translate(0 -14.006)" fill="#1a1818"/>
    <path id="Path_3185" data-name="Path 3185" d="M12.869,20.559a.893.893,0,0,1-.638-1.518l.017-.017a.9.9,0,1,1,1.268,1.268.91.91,0,0,1-.646.267" transform="translate(-6.606 -10.353)" fill="#1a1818"/>
    <path id="Path_3186" data-name="Path 3186" d="M24.569,33.84H16.512a.9.9,0,0,1,0-1.793h8.057a.9.9,0,1,1,0,1.793" transform="translate(-8.617 -17.683)" fill="#1a1818"/>
    <path id="Path_3187" data-name="Path 3187" d="M35.335,15.835a1.12,1.12,0,0,1-.756-.293l-3.4-3.1a1.121,1.121,0,0,1,1.511-1.656l2.64,2.411,6.286-5.78a1.12,1.12,0,1,1,1.517,1.649L36.093,15.54a1.117,1.117,0,0,1-.758.3" transform="translate(-17.004 -3.928)" fill="#00b0eb"/>
  </g>
</svg>
