<svg xmlns="http://www.w3.org/2000/svg" width="17.052" height="19.865" viewBox="0 0 17.052 19.865">
  <g id="Iconly_Two-tone_Paper" data-name="Iconly/Two-tone/Paper" transform="translate(-3.5 -2)">
    <g id="Paper" transform="translate(4.25 2.75)">
      <path id="Stroke_1" data-name="Stroke 1" d="M11.237.75l.541-.519A.75.75,0,0,0,11.237,0ZM16.3,6.026h.75a.75.75,0,0,0-.209-.519ZM11.237,0H4.584V1.5h6.653ZM4.584,0A4.57,4.57,0,0,0,0,4.479H1.5A3.07,3.07,0,0,1,4.584,1.5ZM0,4.479V15.192H1.5V4.479ZM0,15.192a4.577,4.577,0,0,0,4.584,4.661v-1.5A3.077,3.077,0,0,1,1.5,15.192Zm4.584,4.661h7.989v-1.5H4.584Zm7.989,0a4.637,4.637,0,0,0,4.479-4.661h-1.5a3.138,3.138,0,0,1-2.979,3.161Zm4.479-4.661V6.026h-1.5v9.166Zm-.209-9.685L11.778.231,10.7,1.269l5.065,5.276Z" transform="translate(-0.75 -0.738)" fill="#124062"/>
      <path id="Stroke_3" data-name="Stroke 3" d="M1.5.75A.75.75,0,0,0,0,.75ZM3.318,6.234l0-.75h0Zm2.8.746a.75.75,0,0,0-.1-1.5ZM0,.75V3.659H1.5V.75ZM0,3.659A3.324,3.324,0,0,0,3.316,6.984l0-1.5A1.824,1.824,0,0,1,1.5,3.659ZM3.316,6.984c1.288,0,2.681,0,2.806,0l-.1-1.5-.238,0H5.155l-1.835,0Z" transform="translate(9.474 -0.75)" fill="#124062"/>
      <path id="Stroke_5" data-name="Stroke 5" d="M6.147,1.5a.75.75,0,0,0,0-1.5ZM.75,0a.75.75,0,0,0,0,1.5Zm5.4,0H.75V1.5h5.4Z" transform="translate(3.887 12.058)" fill="#124062" opacity="0.4"/>
      <path id="Stroke_7" data-name="Stroke 7" d="M4.106,1.5a.75.75,0,0,0,0-1.5ZM.75,0a.75.75,0,0,0,0,1.5ZM4.106,0H.75V1.5H4.106Z" transform="translate(3.887 7.105)" fill="#124062" opacity="0.4"/>
    </g>
  </g>
</svg>
