<svg xmlns="http://www.w3.org/2000/svg" width="20.639" height="19.172" viewBox="0 0 20.639 19.172">
  <g id="Wallet" transform="translate(0.75 0.75)">
    <path id="Stroke_1" data-name="Stroke 1" d="M7.49,6.883a.75.75,0,0,0,0-1.5Zm-4.048-.75v.75h0ZM.75,3.441h0ZM3.442.75V0h0ZM7.49,1.5a.75.75,0,0,0,0-1.5Zm0,3.883H3.442v1.5H7.49Zm-4.048,0A1.943,1.943,0,0,1,1.5,3.441H0A3.443,3.443,0,0,0,3.442,6.883ZM1.5,3.441A1.943,1.943,0,0,1,3.443,1.5V0A3.443,3.443,0,0,0,0,3.441ZM3.442,1.5H7.49V0H3.442Z" transform="translate(11.648 5.263)" fill="#124062"/>
    <path id="Stroke_3" data-name="Stroke 3" d="M1.062,1.5a.75.75,0,0,0,0-1.5ZM.75,0a.75.75,0,0,0,0,1.5Zm.312,0H.75V1.5h.312Z" transform="translate(14.487 7.893)" fill="#124062"/>
    <path id="Stroke_5" data-name="Stroke 5" d="M6,1.5h8.643V0H6Zm8.643,0a4.5,4.5,0,0,1,4.5,4.5h1.5a6,6,0,0,0-6-6Zm4.5,4.5v7.177h1.5V6Zm0,7.177a4.5,4.5,0,0,1-4.5,4.5v1.5a6,6,0,0,0,6-6Zm-4.5,4.5H6v1.5h8.643ZM6,17.672a4.5,4.5,0,0,1-4.5-4.5H0a6,6,0,0,0,6,6Zm-4.5-4.5V6H0v7.177ZM1.5,6A4.5,4.5,0,0,1,6,1.5V0A6,6,0,0,0,0,6Z" transform="translate(-0.75 -0.75)" fill="#124062"/>
    <path id="Stroke_7" data-name="Stroke 7" d="M.75,0a.75.75,0,0,0,0,1.5Zm5.4,1.5a.75.75,0,0,0,0-1.5Zm-5.4,0h5.4V0H.75Z" transform="translate(3.786 3.788)" fill="#124062"/>
  </g>
</svg>
